<?xml version="1.0" encoding="utf-8"?>
<!-- Generator: Adobe Illustrator 25.2.3, SVG Export Plug-In . SVG Version: 6.00 Build 0)  -->
<svg version="1.1" id="Capa_1" xmlns="http://www.w3.org/2000/svg" xmlns:xlink="http://www.w3.org/1999/xlink" x="0px" y="0px"
	 viewBox="0 0 24 24" style="enable-background:new 0 0 24 24;" xml:space="preserve">
<style type="text/css">
	.st0{fill:none;}
	.st1{fill:#F0EFEB;}
</style>
<g id="bounding_box">
	<rect y="0" class="st0" width="24" height="24"/>
</g>
<g id="design">
	<g>
		<path class="st1" d="M12,14.5c-0.4,0-0.8-0.3-0.8-0.8c0-1.1,0.6-2.2,1.7-2.9c0.6-0.4,1-1.1,0.8-2.1c-0.1-0.6-0.6-1.1-1.2-1.2
			c-0.5-0.1-1.1,0-1.5,0.3c-0.4,0.4-0.7,0.9-0.7,1.5c0,0.4-0.3,0.8-0.8,0.8S8.8,9.7,8.8,9.3c0-1.1,0.5-2,1.3-2.7
			c0.8-0.6,1.8-0.8,2.8-0.6c1.1,0.3,2,1.2,2.3,2.3c0.4,1.4-0.2,2.9-1.4,3.7c-0.6,0.4-0.9,1-0.9,1.6C12.8,14.2,12.4,14.5,12,14.5z"/>
		<path class="st1" d="M12,18c-0.1,0-0.3,0-0.4-0.1s-0.2-0.1-0.3-0.2C11.1,17.5,11,17.3,11,17c0-0.1,0-0.1,0-0.2
			c0-0.1,0-0.1,0.1-0.2c0-0.1,0.1-0.1,0.1-0.2c0,0,0.1-0.1,0.1-0.1c0.2-0.2,0.6-0.3,0.9-0.3c0.1,0,0.1,0,0.2,0.1
			c0.1,0,0.1,0,0.2,0.1c0.1,0,0.1,0.1,0.2,0.1c0,0,0.1,0.1,0.1,0.1c0,0.1,0.1,0.1,0.1,0.2c0,0.1,0.1,0.1,0.1,0.2c0,0.1,0,0.1,0,0.2
			c0,0.3-0.1,0.5-0.3,0.7C12.5,17.9,12.3,18,12,18z"/>
		<path class="st1" d="M12,22C6.5,22,2,17.5,2,12S6.5,2,12,2s10,4.5,10,10S17.5,22,12,22z M12,3.5c-4.7,0-8.5,3.8-8.5,8.5
			s3.8,8.5,8.5,8.5s8.5-3.8,8.5-8.5S16.7,3.5,12,3.5z"/>
	</g>
</g>
</svg>
