<?xml version="1.0" encoding="utf-8"?>
<!-- Generator: Adobe Illustrator 25.2.3, SVG Export Plug-In . SVG Version: 6.00 Build 0)  -->
<svg version="1.1" id="Capa_1" xmlns="http://www.w3.org/2000/svg" xmlns:xlink="http://www.w3.org/1999/xlink" x="0px" y="0px"
	 viewBox="0 0 117.02 107.45" style="enable-background:new 0 0 117.02 107.45;" xml:space="preserve">
<style type="text/css">
	.st0{fill:#F0EFEB;stroke:#F0EFEB;stroke-width:0.5;}
</style>
<path class="st0" d="M52.85,60.83c-0.35,0-0.68-0.11-0.95-0.33c-0.79-0.63-1.16-1.59-1.11-2.85c0.23-5.79,10.2-18.52,12.19-19.87
	c0.96-0.65,1.59-0.46,1.95-0.19c0.3,0.23,1.09,0.83-0.12,3.94c-0.01,0.01-0.01,0.02-0.02,0.04c-0.02,0.04-2.03,4.57-4.37,9.13
	c-4.91,9.55-6.5,9.93-7.18,10.09C53.11,60.82,52.98,60.83,52.85,60.83z M63.33,39.96c-2.73,2.85-10.46,13.12-10.65,17.76
	c-0.02,0.53,0.07,0.94,0.27,1.2c1.73-0.99,6.5-9.97,10.08-18.07C63.15,40.56,63.25,40.26,63.33,39.96z"/>
<path class="st0" d="M50.05,56.48c-5.37,0-7.85-2.51-9-4.77c-3.09-6.08,0.4-16.65,3.33-19.62c0.34-0.35,0.72-0.61,1.11-0.78
	c0.56-2.79,2.36-5.76,6.03-6.64c1.31-0.32,2.57-0.08,3.75,0.68c4.81,3.14,6.68,14.86,6.76,15.35c0.08,0.5-0.28,0.98-0.79,1.06
	c-0.52,0.08-1-0.27-1.08-0.77c-0.5-3.16-2.52-11.86-5.94-14.09c-0.73-0.47-1.46-0.61-2.24-0.42c-2.59,0.62-3.98,2.66-4.51,4.72
	c0.45,0.12,0.91,0.35,1.35,0.68c2.17,1.62,4.08,5.85,2.99,7.65c-0.2,0.33-1,1.34-2.83,0.53c-2.12-0.93-3.49-3.31-3.65-6.16
	c-2.25,2.99-5.15,11.92-2.57,17.01c1.5,2.94,4.63,4.16,9.34,3.62c0.52-0.06,0.99,0.31,1.05,0.81c0.06,0.51-0.31,0.97-0.83,1.03
	C51.51,56.44,50.76,56.48,50.05,56.48z M47.2,33.06c-0.07,2.46,0.93,4.59,2.55,5.3c0.24,0.1,0.38,0.13,0.46,0.14
	c0.25-0.72-0.71-3.77-2.52-5.14C47.51,33.23,47.35,33.13,47.2,33.06z"/>
<path class="st0" d="M66.51,69.28c-1.26,0-2.51-0.21-3.7-0.64c-2.66-0.96-6.28-3.49-8.42-10.1c-0.16-0.49,0.12-1.01,0.62-1.16
	c0.5-0.15,1.03,0.12,1.19,0.6c1.51,4.67,4.02,7.76,7.27,8.92c3.04,1.1,6.11,0.28,7.97-0.86c3.59-2.19,5.69-6.67,5.84-12.01
	c-2.43-0.17-4.59-1.27-6.1-3.21c-2.42-3.12-1.59-5.14-1.12-5.87c0.79-1.22,2.35-1.8,3.99-1.48c1.92,0.38,4.19,2.14,4.8,5.91
	c0.15,0.92,0.25,1.82,0.3,2.71c0.71-0.1,1.38-0.28,2.01-0.51c3.25-1.22,6.57-4.55,6.17-8.95c-0.08-0.86-0.44-1.46-1.16-1.87
	c-4.28-2.45-18.07,2.66-23.03,4.84c-0.48,0.21-1.04,0-1.25-0.46c-0.21-0.47,0-1.02,0.48-1.22c1.92-0.84,18.87-8.11,24.77-4.74
	c1.23,0.71,1.96,1.85,2.09,3.3c0.49,5.35-3.49,9.37-7.38,10.84c-0.89,0.34-1.79,0.56-2.66,0.67c-0.14,6.01-2.58,11.11-6.73,13.63
	C70.64,68.71,68.57,69.28,66.51,69.28z M73.14,45.24c-0.64,0-1.19,0.25-1.49,0.7c-0.54,0.83-0.16,2.24,1.03,3.77
	c1.24,1.59,2.89,2.3,4.56,2.45c-0.05-0.81-0.14-1.64-0.27-2.47c-0.46-2.84-2.01-4.13-3.31-4.39C73.49,45.26,73.31,45.24,73.14,45.24
	z"/>
<path class="st0" d="M64.6,40.04c-0.24,0-0.47-0.09-0.66-0.26c-0.37-0.36-0.38-0.94-0.02-1.31c2.58-2.6,9.13-10.19,8.42-14.11
	c-0.09-0.5,0.25-0.98,0.77-1.07c0.52-0.09,1.01,0.25,1.1,0.76c1,5.56-7.91,14.7-8.93,15.72C65.09,39.94,64.84,40.04,64.6,40.04z"/>
<path class="st0" d="M63.94,39.23c-0.05,0-0.1,0-0.16-0.01c-0.52-0.08-0.87-0.56-0.78-1.07c0.02-0.09,1.56-9.43-0.14-13.15
	c-0.21-0.47,0.01-1.02,0.48-1.22c0.48-0.21,1.04,0,1.25,0.47c1.92,4.22,0.34,13.79,0.27,14.2C64.8,38.91,64.4,39.23,63.94,39.23z"/>
</svg>
