<?xml version="1.0" encoding="utf-8"?>
<!-- Generator: Adobe Illustrator 25.2.3, SVG Export Plug-In . SVG Version: 6.00 Build 0)  -->
<svg version="1.1" id="Capa_1" xmlns="http://www.w3.org/2000/svg" xmlns:xlink="http://www.w3.org/1999/xlink" x="0px" y="0px"
	 viewBox="0 0 49.99 51.64" style="enable-background:new 0 0 49.99 51.64;" xml:space="preserve">
<style type="text/css">
	.st0{fill:#4E3A2F;}
</style>
<path class="st0" d="M40.9,10.84c0.01-2.71-2.18-4.7-4.64-4.69c-8.35,0.02-16.69,0.01-25.03,0.01c-2.61,0-4.63,2-4.63,4.59
	c0,7.98,0,15.96,0,23.94c0,0.27,0,0.53,0.01,0.8c0.15,2.36,2.12,4.22,4.51,4.22c3.76,0.01,7.51,0.01,11.27,0h7.61v0
	c2.14,0.01,4.28,0.02,6.42-0.01c1.57-0.02,2.8-0.73,3.69-2c0.57-0.81,0.78-1.73,0.78-2.71C40.88,26.94,40.87,18.89,40.9,10.84z
	 M24.11,26.89c0-0.8-0.5-1.29-1.31-1.29c-0.8,0-1.6,0-2.4,0c-0.36,0-0.5-0.13-0.51-0.49c-0.01-0.55,0-1.1,0-1.66
	c0-0.07-0.04-0.15-0.06-0.22c0.02-0.09,0.06-0.19,0.06-0.29c0.01-0.28-0.01-0.57,0.01-0.85c0.02-0.36,0.13-0.46,0.5-0.46
	c0.81,0,1.62,0.02,2.42-0.01c0.26-0.01,0.55-0.09,0.77-0.23c0.36-0.21,0.51-0.58,0.51-1c0.03-1.32,0.01-2.64,0.13-3.95
	c0.12-1.28,0.66-2.42,1.69-3.27c0.92-0.75,2-1.12,3.16-1.19c1.21-0.08,2.42-0.06,3.63-0.07c0.3,0,0.43,0.15,0.43,0.48
	c0.01,0.94,0.01,1.88,0,2.81c0,0.37-0.15,0.51-0.52,0.51c-0.75,0-1.51,0-2.26,0c-1.11,0.01-2.11,0.83-2.22,1.93
	c-0.08,0.88-0.04,1.76-0.05,2.64c-0.01,0.87,0.49,1.35,1.37,1.35c0.97,0,1.95,0,2.92,0c0.38,0,0.54,0.17,0.48,0.55
	c-0.15,0.99-0.3,1.98-0.46,2.97c-0.06,0.36-0.17,0.45-0.56,0.45c-0.78,0-1.56,0-2.34,0c-0.96,0-1.42,0.46-1.42,1.41
	c0,2.63,0,5.26,0,7.89c0,0.76-0.01,1.51,0,2.27c0,0.17,0.03,0.32,0.08,0.46h-4.15c0.05-0.14,0.07-0.3,0.07-0.46
	C24.11,33.74,24.11,30.31,24.11,26.89z M38.78,34.19c0,1.93-1.53,3.44-3.49,3.44c-1.93,0-2.59,0-4.52,0c-0.49,0-0.6-0.11-0.6-0.59
	c0-3.34,0-5.92,0-9.26c0-0.5,0.12-0.62,0.64-0.62c0.8,0,1.27,0,2.07,0c0.7,0,1.16-0.5,1.26-1.19c0.16-1.02,0.32-2.69,0.47-3.7
	c0.12-0.79-0.41-2.03-1.22-2.03c-0.97,0-2.22,0-3.19,0c-0.51,0-0.63-0.11-0.63-0.63c0-0.72,0-0.4,0-1.12c0-0.91,0.81-1.55,1.72-1.55
	c0.74,0,1.71,0,2.45,0c0.75,0,1.26-0.95,1.26-1.69c0-0.96,0.01-1.91,0-2.87c0-0.77-0.51-2.31-1.28-2.3c-1.2,0.01-4.5,0.09-5.7,0.18
	c-1.61,0.13-3.08,0.66-4.2,1.9c-0.86,0.95-1.44,3.01-1.55,4.26c-0.11,1.2-0.09,1.65-0.12,2.86c-0.02,0.75-0.05,0.8-0.82,0.8
	c-0.72,0-1.45,0-2.18,0c-0.7,0-1.2,0.48-1.21,1.18c-0.01,1.06-0.01,3.55,0,4.61c0,0.68,0.5,1.17,1.19,1.18c0.82,0.01,1.63,0,2.45,0
	c0.43,0,0.57,0.13,0.57,0.55c0,3.38,0,6.1,0,9.48c0,0.43-0.12,0.55-0.55,0.55h-0.32h1.16c-3.42,0-6.84,0-10.26,0
	c-1.95,0-3.49-1.5-3.49-3.43c-0.01-7.51-0.01-15.02,0-22.53c0-1.94,1.57-3.44,3.56-3.44c1.92,0,3.84,0,5.76,0c1.92,0,3.84,0,5.76,0
	c3.81,0,7.62,0,11.43,0c1.31,0,2.34,0.53,3.06,1.63c0.36,0.55,0.53,1.16,0.53,1.81C38.79,19.16,38.79,26.67,38.78,34.19z"/>
</svg>
