<?xml version="1.0" encoding="utf-8"?>
<!-- Generator: Adobe Illustrator 25.2.3, SVG Export Plug-In . SVG Version: 6.00 Build 0)  -->
<svg version="1.1" id="Capa_1" xmlns="http://www.w3.org/2000/svg" xmlns:xlink="http://www.w3.org/1999/xlink" x="0px" y="0px"
	 viewBox="0 0 700 700" style="enable-background:new 0 0 700 700;" xml:space="preserve">
<style type="text/css">
	.st0{fill:#A5A58D;}
</style>
<path class="st0" d="M298.3,322.2c0-29,4.5-58,12.7-79.8c3.6-9.1,8.2-17.2,13.6-22.7c-2.7-1.8-4.5-3.6-6.3-5.4h-0.9
	c-7.3-8.2-11.8-17.2-12.7-28.1c-27.2-28.1-91.6-73.4-153.2-96.1C128.8,81.9,107,76.5,88,76.5c-17.2,0-32.6,3.6-44.4,13.6
	c-5.4,6.3-10.9,13.6-14.5,23.6c-6.3,17.2-9.1,34.5-7.3,51.7c1.8,32.6,16.3,65.3,39,91.6c21.8,27.2,51.7,48.1,82.5,59.8
	c19.9,7.3,39.9,10.9,59.8,9.1c6.3,0,10.9,4.5,11.8,10c0,5.4-3.6,10-9.1,11.8c-39.9,10.9-64.4,29.9-77.1,50.8
	c-5.4,10.9-9.1,21.8-10,32.6s0,21.8,2.7,31.7c5.4,19.9,17.2,36.3,29.9,44.4h0.9c19.9,11.8,47.1,11.8,76.2,2.7
	c28.1-9.1,57.1-27.2,83.4-53.5c-4.5-11.8-7.3-27.2-7.3-45.3c0-6.3,0-12.7,0.9-19.9c0.9-5.4,0.9-10,2.7-15.4
	C301.9,361.2,298.3,343.1,298.3,322.2L298.3,322.2z M390.8,160.8c32.6-29,93.4-69.8,150.5-90.7c24.5-9.1,49-14.5,70.7-14.5
	c22.7-0.9,43.5,4.5,58.9,19c8.2,8.2,15.4,18.1,19.9,31.7c8.2,19.9,10,39.9,9.1,60.8c-2.7,37.2-19,73.4-43.5,103.4
	S599.4,324,564,336.7c-7.3,2.7-14.5,5.4-21.8,6.3c21.8,12.7,37.2,28.1,47.1,44.4c8.2,13.6,11.8,27.2,13.6,41.7
	c0.9,13.6,0,27.2-3.6,39c-7.3,25.4-22.7,47.1-39.9,57.1h-0.9c-25.4,14.5-58.9,16.3-93.4,4.5c-29-9.1-58.9-27.2-86.1-52.6
	c-10,14.5-21.8,21.8-29,21.8s-19-7.3-29-21.8c-26.3,25.4-57.1,43.5-86.1,52.6c-34.5,11.8-67.1,10-93.4-4.5
	c-18.1-10-33.6-31.7-39.9-57.1c-3.6-11.8-5.4-25.4-3.6-39c0.9-14.5,5.4-28.1,12.7-41.7c10-16.3,25.4-31.7,48.1-44.4
	c-8.2-0.9-15.4-3.6-22.7-6.3c-34.5-12.7-67.1-36.3-91.6-66.2C19.1,240.6,2.7,204.4,0,167.2c-0.9-20.9,1.8-40.8,9.1-60.8
	c4.5-13.6,11.8-23.6,20.9-31.7c15.4-14.5,35.4-19.9,58.9-19c21.8,0,45.3,5.4,69.8,14.5c58,20.9,117.9,61.7,150.5,90.7
	c2.7-4.5,5.4-8.2,8.2-11.8h0.9l2.7-2.7c-8.2-21.8-18.1-40.8-29-56.2c-11.8-16.3-24.5-28.1-34.5-33.6c-5.4-1.8-8.2-8.2-5.4-13.6
	s9.1-8.2,14.5-5.4c13.6,6.3,29,20.9,42.6,40.8c10.9,16.3,22.7,36.3,30.8,58.9c3.6-0.9,6.3-1.8,10-1.8s7.3,0.9,10.9,1.8
	c9.1-22.7,19.9-42.6,31.7-58.9c13.6-19.9,29-34.5,42.6-40.8c5.4-2.7,11.8,0,13.6,5.4c2.7,5.4,0.9,11.8-4.5,13.6
	c-10.9,5.4-22.7,17.2-34.5,33.6c-10.9,15.4-21.8,35.4-29.9,57.1c0.9,0,1.8,0.9,2.7,1.8C386.3,152.7,389,156.3,390.8,160.8
	L390.8,160.8z M389,456.4c25.4,26.3,55.3,44.4,82.5,53.5c29,9.1,56.2,9.1,76.2-2.7h0.9c12.7-8.2,24.5-24.5,29.9-44.4
	c2.7-10,4.5-20.9,2.7-31.7c-0.9-10.9-3.6-21.8-10-32.6c-12.7-20.9-36.3-39.9-77.1-50.8c-5.4-1.8-9.1-6.3-8.2-11.8
	c0-5.4,5.4-10,10.9-10c19.9,1.8,39.9-1.8,59.8-9.1c31.7-11.8,60.8-32.6,83.4-59.8c21.8-26.3,36.3-58.9,39-91.6
	c0.9-17.2-1.8-34.5-8.2-51.7c-3.6-10-8.2-17.2-14.5-23.6c-10.9-10-26.3-13.6-44.4-13.6c-19,0-40.8,5.4-63.5,13.6
	c-61.7,22.7-126,68-153.2,96.1c-0.9,10.9-5.4,19.9-12.7,28.1c-1.8,1.8-4.5,3.6-6.3,5.4c4.5,5.4,9.1,13.6,12.7,22.7
	c8.2,21.8,12.7,50.8,12.7,79.8c0,20.9-3.6,39-9.1,53.5c0.9,5.4,1.8,10,1.8,15.4c0.9,7.3,1.8,13.6,1.8,19.9
	C396.2,429.2,392.6,444.6,389,456.4L389,456.4z M374.5,403.8c-8.2,7.3-16.3,10.9-24.5,10.9s-16.3-3.6-24.5-10.9v7.3
	c0,19.9,3.6,34.5,9.1,45.3c6.3,14.5,12.7,20.9,15.4,20.9s9.1-6.3,15.4-20.9c5.4-10.9,9.1-25.4,9.1-45.3L374.5,403.8L374.5,403.8z
	 M350,206.2c7.3,0,12.7-2.7,17.2-7.3c4.5-4.5,7.3-10.9,7.3-17.2c0-7.3-2.7-12.7-7.3-17.2c-4.5-4.5-10-7.3-17.2-7.3
	c-6.3,0-12.7,2.7-17.2,7.3c-4.5,4.5-7.3,10-7.3,17.2c0,6.3,2.7,12.7,7.3,17.2C337.3,203.5,343.7,206.2,350,206.2z M331,249.7
	c-7.3,19-10.9,46.2-10.9,72.5c0,21.8,4.5,39,10,51.7c6.3,12.7,14.5,19.9,19.9,19.9s11.8-6.3,18.1-16.3c7.3-12.7,12.7-31.7,12.7-55.3
	c0-26.3-4.5-53.5-11.8-72.5c-5.4-13.6-11.8-22.7-19-22.7S336.4,236.1,331,249.7L331,249.7z"/>
</svg>
