<?xml version="1.0" encoding="utf-8"?>
<!-- Generator: Adobe Illustrator 25.2.3, SVG Export Plug-In . SVG Version: 6.00 Build 0)  -->
<svg version="1.1" id="Capa_1" xmlns="http://www.w3.org/2000/svg" xmlns:xlink="http://www.w3.org/1999/xlink" x="0px" y="0px"
	 viewBox="0 0 700 700" style="enable-background:new 0 0 700 700;" xml:space="preserve">
<style type="text/css">
	.st0{fill:#A5A58D;}
</style>
<path class="st0" d="M122.5,533.8c0,14.5-11.8,26.2-26.2,26.2S70,548.2,70,533.8s11.8-26.2,26.2-26.2S122.5,519.3,122.5,533.8"/>
<path class="st0" d="M476.9,52.5c0,14.5-11.8,26.2-26.2,26.2S424.4,67,424.4,52.5s11.8-26.2,26.2-26.2S476.9,38,476.9,52.5"/>
<path class="st0" d="M628.3,21.1c-1.9-2.7-5.2-4-8.5-3.5l-23.7,3.9L579.6,2.9c-2.2-2.5-5.7-3.5-9-2.6c-3.2,0.9-5.7,3.6-6.2,7
	L560.5,33l-21.9,11v0c-2.9,1.5-4.8,4.4-4.8,7.7s1.7,6.3,4.5,7.8L560,71.3l3.1,25.8c0.4,3.4,2.7,6.2,6,7.3c3.2,1.1,6.8,0.2,9.1-2.3
	l17.1-18l23.5,4.7v0c3.2,0.7,6.6-0.6,8.6-3.2c2-2.6,2.4-6.2,1-9.1l-11.1-23.4l11.8-23v0C630.5,27.2,630.2,23.7,628.3,21.1
	L628.3,21.1z"/>
<path class="st0" d="M74.6,44.6l13.1,7l1.9,15.2c0.4,3.3,2.7,6.2,5.9,7.2c3.2,1.1,6.7,0.2,9.1-2.2l10.2-10.5L129,64
	c3.3,0.6,6.6-0.6,8.6-3.3c2-2.6,2.4-6.2,0.9-9.2l-6.7-13.8l7.1-13.5h0c1.6-2.9,1.3-6.5-0.6-9.2c-1.9-2.7-5.2-4.1-8.5-3.5l-14.3,2.3
	l-10-10.9c-2.2-2.5-5.7-3.4-8.9-2.5c-3.2,0.9-5.6,3.6-6.2,6.9l-2.4,15.3L75,29v0c-2.9,1.4-4.8,4.4-4.9,7.7c-0.1,3.3,1.7,6.3,4.6,7.9
	L74.6,44.6z"/>
<path class="st0" d="M593.4,435c-1.9-2.7-5.2-4.1-8.5-3.5l-14.3,2.3l-10-10.9c-2.2-2.5-5.7-3.4-8.9-2.5c-3.2,0.9-5.6,3.6-6.2,6.9
	l-2.4,15.1l-13.1,6.5c-2.9,1.4-4.8,4.4-4.9,7.7c-0.1,3.3,1.7,6.3,4.6,7.9l13.1,7l1.9,15.2c0.4,3.3,2.7,6.2,5.9,7.2
	c3.2,1.1,6.7,0.2,9.1-2.2l10.3-10.6l14.2,2.8v0c3.3,0.6,6.6-0.6,8.6-3.3c2-2.6,2.4-6.2,0.9-9.2l-6.7-13.7l7.1-13.5v0
	C595.7,441.1,595.3,437.7,593.4,435L593.4,435z"/>
<path class="st0" d="M249.7,494.6c16.1-1.8,33.4-7.7,51.8-14c36.1-12.4,73.5-25.2,100-4.4c16.4,12.9,19.2,32.8,22.3,53.8l0.7,4.9
	c0.7,4.3,4.4,7.5,8.7,7.4h1.3c2.3-0.3,4.4-1.6,5.8-3.4c1.4-1.9,2-4.3,1.6-6.6l-0.7-4.9c-3.4-23.5-6.9-47.9-28.8-65.1
	c-34-26.7-77.8-11.7-116.5,1.6c-17.5,6-33.8,11.6-48.1,13.1c-13.1,1.4-23.1-1-29.2-7.2c-10.2-10.4-8.1-28.9-8.1-28.9v0
	c3-19.8-4.3-39.7-19.5-52.8l-0.5-0.4v0c-1.4-0.9-2.6-2-3.7-3.2c0.9-1.4,2.2-2.5,3.6-3.2c9-5,8.8-16.1,4.6-24.2v0
	c-1.2-2.2-3.3-3.8-5.8-4.4c-5.3-1.3-8.8-3.3-9.6-5.4c-1.1-3.3,2.6-9.8,5.7-13.5c10.7-9.5,17.5-25.7,8.8-37.5c-5.2-7.2-14-9.9-21-12
	l-3.9-1.2l0,0c-4.5-1.1-7.6-5.2-7.6-9.8c-0.4-4.1,1.4-6.4,6.5-11.9l2-2.2c8.8-9.7,17.5-19.3,26.2-29l14.6-16
	c9.2-10,14.9-22.7,16.3-36.2c1.8-16.2-1.5-32.4-4.4-46.7c-3-15.1-5.4-28.8-3.6-42.6c3-18.1,8-35.8,15-52.8l2.5-6.9l0,0
	c1.7-4.5-0.7-9.6-5.2-11.2s-9.6,0.7-11.2,5.2l-2.5,6.8c-7.5,18.3-12.9,37.4-16.1,56.9c-1.3,16.1,0,32.4,3.9,48.1
	c2.7,13.7,5.6,27.9,4.1,41.4v0c-0.3,2.2-0.6,4.4-1.2,6.5c-1.8-0.8-3.3-2.1-4.4-3.8c-2.6-4.1-8-5.3-12.1-2.8c-4.1,2.6-5.3,8-2.8,12.1
	c2.9,4.6,7.1,8.2,12,10.3c-1,1.4-2.1,2.7-3.2,4l-14.6,15.9c-8.8,9.5-17.5,19.2-26.2,28.9l-1.8,2c-5.3,5.9-12,13.1-11,25.2h0
	c0.3,5.6,2.3,11,5.8,15.4c3.5,4.4,8.2,7.7,13.6,9.3l4.4,1.4c4.4,0.9,8.5,2.8,11.9,5.6c2.1,2.8-2,10.4-6.6,14.4l-0.8,0.7
	c-1.5,1.6-14.3,16.3-9.8,30.6h0c2.6,7.5,8.6,13.3,16.2,15.6c-5.5,3.5-9.1,9.2-9.9,15.7c-0.3,4.8,1.4,11.8,10.8,18.5v0
	c10.3,9.1,15.2,22.8,13.1,36.4c0,1.1-3.4,27.1,12.8,43.8C216.1,492.5,230.7,496.6,249.7,494.6L249.7,494.6z"/>
<path class="st0" d="M470.7,481.2c2.5,0,4.8-1.1,6.5-2.9c20.1-22.1,67.8-80.6,76.8-144.9c12.5-88.5-47.7-136.6-105.8-182.9
	c-44.3-35.3-90.1-71.9-102.7-126.3c-1.1-4.7-5.8-7.6-10.5-6.6s-7.6,5.8-6.6,10.5c14,60.5,62.3,98.9,108.9,136.1
	c56.9,45.3,110.5,88,99.4,166.8c-5.8,41.2-32.9,91.9-72.4,135.6c-2.3,2.6-2.8,6.2-1.4,9.4C464.2,479.2,467.3,481.2,470.7,481.2
	L470.7,481.2z"/>
<path class="st0" d="M443.8,414c3.9,2.8,9.4,1.9,12.2-2c16.1-22.2,25.7-50.4,25.2-73.8c-1.2-60.5-40.2-96.6-77.9-131.2
	c-17.5-15.2-33.6-31.9-48.1-50c-9.9-12.4-17.8-26.4-23.3-41.3c-0.7-2.3-2.2-4.2-4.3-5.3c-2.1-1.1-4.6-1.3-6.8-0.5
	c-2.3,0.8-4.1,2.4-5.1,4.5c-1,2.1-1.1,4.6-0.3,6.8c6.1,16.6,14.9,32.2,25.9,46c15.1,19,31.9,36.6,50.1,52.5
	c36.7,33.8,71.3,65.8,72.4,118.9c0.4,19.4-8.2,44.3-21.9,63.2C439,405.7,439.9,411.1,443.8,414L443.8,414z"/>
<path class="st0" d="M319.4,201.2c0,4.8-3.9,8.8-8.8,8.8s-8.8-3.9-8.8-8.8s3.9-8.8,8.8-8.8S319.4,196.4,319.4,201.2"/>
<path class="st0" d="M363.1,275.6c0,4.8-3.9,8.8-8.8,8.8s-8.8-3.9-8.8-8.8s3.9-8.8,8.8-8.8S363.1,270.8,363.1,275.6"/>
<path class="st0" d="M297.5,245c0,4.8-3.9,8.8-8.8,8.8s-8.8-3.9-8.8-8.8s3.9-8.8,8.8-8.8S297.5,240.2,297.5,245"/>
<path class="st0" d="M316.1,371.9c4.8,0.6,8.2,5,7.5,9.8c-0.6,4.8-5,8.2-9.8,7.5c-4.8-0.6-8.2-5-7.5-9.8
	C306.9,374.7,311.3,371.3,316.1,371.9"/>
<path class="st0" d="M368.6,328.2c4.8,0.6,8.2,5,7.5,9.8c-0.6,4.8-5,8.2-9.8,7.5c-4.8-0.6-8.2-5-7.5-9.8
	C359.4,330.9,363.8,327.5,368.6,328.2"/>
<path class="st0" d="M326.6,290c-1.9-2.8-5.2-4.2-8.5-3.7l-14.6,2.1l-10.1-10.2h0c-2.3-2.4-5.7-3.2-8.9-2.2c-3.1,1-5.5,3.7-6,6.9
	l-2.3,13.5l-13.1,5.9h0c-3.1,1.4-5.1,4.4-5.2,7.8s1.9,6.5,4.9,8l12.9,6.3l1.8,13.6c0.4,3.3,2.7,6,5.8,7.1c3.1,1.1,6.5,0.4,8.9-1.9
	l10.4-9.9l14.5,2.6c3.3,0.6,6.6-0.8,8.6-3.5c2-2.7,2.2-6.3,0.7-9.2l-6.4-12.1l6.8-11.9v0C328.6,296.4,328.5,292.8,326.6,290
	L326.6,290z"/>
</svg>
