<?xml version="1.0" encoding="utf-8"?>
<!-- Generator: Adobe Illustrator 25.2.3, SVG Export Plug-In . SVG Version: 6.00 Build 0)  -->
<svg version="1.1" id="Capa_1" xmlns="http://www.w3.org/2000/svg" xmlns:xlink="http://www.w3.org/1999/xlink" x="0px" y="0px"
	 viewBox="0 0 700 700" style="enable-background:new 0 0 700 700;" xml:space="preserve">
<style type="text/css">
	.st0{fill:#A5A58D;}
</style>
<path class="st0" d="M281.5,198.7v-55.4c0-4.6-3.8-8.4-8.4-8.4h-71.2c-4.6,0-8.4,3.8-8.4,8.4v55.4c-26.6,5.6-46.6,16.6-46.6,32.7
	v247.9c0,4.6,3.8,8.4,8.4,8.4h164.5c4.6,0,8.4-3.8,8.4-8.4V231.3C328.1,215.3,308.1,204.3,281.5,198.7L281.5,198.7z M311.3,434.4
	h-87.8V270.5h87.8L311.3,434.4z M264.7,151.7v15.7h-54.4v-15.7H264.7z M210.3,178.6h54.4V196c-8.8-1-18-1.6-27.2-1.6
	s-18.4,0.6-27.2,1.6V178.6z M163.7,470.8V231.3c0-6,25.1-20.2,73.8-20.2s73.8,14.2,73.8,20.2v27.9h-93.4c-3.1,0-5.6,2.5-5.6,5.6V440
	c0,3.1,2.5,5.6,5.6,5.6h93.4v25.2L163.7,470.8z"/>
<path class="st0" d="M553.1,80.8c0-4.6-3.8-8.4-8.4-8.4l-196,0c-4.6,0-8.4,3.8-8.4,8.4v37.9c0,0.2,0,0.3,0.1,0.5c0,0.2,0,0.3,0,0.5
	l36.5,291.8v67.6c0,4.6,3.8,8.4,8.4,8.4h122.9c4.6,0,8.4-3.8,8.4-8.4v-67.6l36.5-291.8c0-0.2,0-0.3,0-0.5c0-0.2,0.1-0.3,0.1-0.5
	L553.1,80.8L553.1,80.8z M393.7,416.7h106.1v16.2H393.7V416.7z M500.4,405.5H393.1l-35.1-281.1h177.6L500.4,405.5z M536.3,89.2v23.9
	H357.2V89.2H536.3z M393.7,470.8v-26.7h106.1v26.7H393.7z"/>
</svg>
