<?xml version="1.0" encoding="utf-8"?>
<!-- Generator: Adobe Illustrator 25.2.3, SVG Export Plug-In . SVG Version: 6.00 Build 0)  -->
<svg version="1.1" id="Capa_1" xmlns="http://www.w3.org/2000/svg" xmlns:xlink="http://www.w3.org/1999/xlink" x="0px" y="0px"
	 viewBox="0 0 700 700" style="enable-background:new 0 0 700 700;" xml:space="preserve">
<style type="text/css">
	.st0{fill:#F0EFEB;}
</style>
<path class="st0" d="M536.7,56H275.4C254.7,56,238,72.7,238,93.4c0,20.6,16.7,37.4,37.4,37.4h261.4c20.6,0,37.4-16.7,37.4-37.4
	C574,72.7,557.3,56,536.7,56L536.7,56z"/>
<path class="st0" d="M536.7,429.4H275.4c-20.6,0-37.4,16.7-37.4,37.4c0,20.6,16.7,37.4,37.4,37.4h261.4c20.6,0,37.4-16.7,37.4-37.4
	C574,446,557.3,429.4,536.7,429.4L536.7,429.4z"/>
<path class="st0" d="M536.7,242.6H275.4c-20.7,0-37.4,16.7-37.4,37.4s16.7,37.4,37.4,37.4h261.4c20.6,0,37.4-16.7,37.4-37.4
	C574,259.4,557.3,242.6,536.7,242.6L536.7,242.6z"/>
<path class="st0" d="M200.7,93.4c0,20.6-16.7,37.4-37.4,37.4S126,114,126,93.4S142.7,56,163.3,56S200.7,72.7,200.7,93.4"/>
<path class="st0" d="M200.7,466.6c0,20.6-16.7,37.4-37.4,37.4S126,487.3,126,466.6s16.7-37.4,37.4-37.4S200.7,446,200.7,466.6"/>
<path class="st0" d="M200.7,280c0,20.6-16.7,37.4-37.4,37.4S126,300.6,126,280s16.7-37.4,37.4-37.4S200.7,259.4,200.7,280"/>
</svg>
