<?xml version="1.0" encoding="utf-8"?>
<!-- Generator: Adobe Illustrator 25.2.3, SVG Export Plug-In . SVG Version: 6.00 Build 0)  -->
<svg version="1.1" id="Capa_1" xmlns="http://www.w3.org/2000/svg" xmlns:xlink="http://www.w3.org/1999/xlink" x="0px" y="0px"
	 viewBox="0 0 49.99 51.64" style="enable-background:new 0 0 49.99 51.64;" xml:space="preserve">
<style type="text/css">
	.st0{fill:#4E3A2F;}
</style>
<path class="st0" d="M10.29,24.57c0-2.33-0.01-4.65,0-6.98c0.01-2.11,0.78-3.98,1.99-5.67c1.27-1.77,2.98-2.95,5.02-3.63
	c0.81-0.27,1.7-0.47,2.55-0.48c4.76-0.05,9.51-0.02,14.27-0.02c1.22,0,2.37,0.3,3.47,0.77c1.34,0.57,2.54,1.36,3.52,2.44
	c1.31,1.44,2.22,3.1,2.57,5.03c0.11,0.62,0.17,1.26,0.17,1.89c0.01,4.5,0.01,9,0.01,13.49c0,2.38-0.89,4.43-2.36,6.26
	c-1.24,1.55-2.85,2.57-4.69,3.18c-0.85,0.29-1.79,0.45-2.68,0.46c-4.7,0.04-9.4,0.02-14.1,0.02c-1.22,0-2.37-0.3-3.47-0.77
	c-1.34-0.57-2.54-1.36-3.52-2.44c-1.31-1.44-2.22-3.1-2.57-5.03c-0.11-0.62-0.17-1.26-0.17-1.89C10.28,29,10.29,26.79,10.29,24.57z
	 M41.68,24.59c0-1.96,0.02-3.92-0.01-5.87c-0.01-0.78-0.06-1.56-0.18-2.32c-0.25-1.49-0.93-2.79-1.95-3.89
	c-1.67-1.79-3.79-2.53-6.18-2.54c-4.18-0.02-8.37-0.01-12.55,0c-0.51,0-1.03,0.02-1.54,0.1c-1.33,0.22-2.55,0.7-3.63,1.51
	c-1.41,1.07-2.4,2.45-2.81,4.17c-0.21,0.9-0.34,1.85-0.35,2.77c-0.04,3.94-0.03,7.89-0.01,11.83c0,0.79,0.06,1.59,0.18,2.37
	c0.24,1.49,0.92,2.79,1.94,3.9c1.66,1.8,3.78,2.54,6.18,2.55c4.2,0.02,8.4,0.01,12.59,0c0.51,0,1.04-0.01,1.54-0.1
	c1.31-0.22,2.52-0.7,3.59-1.5c1.42-1.06,2.41-2.44,2.82-4.16c0.23-0.94,0.33-1.93,0.36-2.9C41.72,28.54,41.68,26.56,41.68,24.59z"/>
<path class="st0" d="M35.97,24.64c0.15,4.82-4.01,8.91-8.94,8.82c-4.74-0.08-8.81-3.89-8.68-9.11c0.12-4.71,3.88-8.54,8.83-8.57
	C32,15.75,36.08,19.68,35.97,24.64z M33.76,24.67c0.04-3.87-3.05-6.71-6.6-6.67c-3.68,0.04-6.46,2.82-6.58,6.37
	c-0.13,3.9,2.94,6.85,6.57,6.87C30.85,31.26,33.79,28.21,33.76,24.67z"/>
<path class="st0" d="M36.03,17.53c-1.04,0.11-1.99-0.86-2-1.95c0-1.01,0.83-2,2.02-1.99c1.06,0,1.99,0.98,1.98,1.99
	C38.03,16.46,37.21,17.65,36.03,17.53z"/>
</svg>
