<?xml version="1.0" encoding="utf-8"?>
<!-- Generator: Adobe Illustrator 25.2.3, SVG Export Plug-In . SVG Version: 6.00 Build 0)  -->
<svg version="1.1" id="Capa_1" xmlns="http://www.w3.org/2000/svg" xmlns:xlink="http://www.w3.org/1999/xlink" x="0px" y="0px"
	 viewBox="0 0 49.99 51.64" style="enable-background:new 0 0 49.99 51.64;" xml:space="preserve">
<style type="text/css">
	.st0{fill:#4E3A2F;}
</style>
<path class="st0" d="M25.71,41.56c-3.19,0-6.39,0.01-9.58,0c-1.79-0.01-3.35-0.66-4.72-1.81c-1.1-0.92-1.86-2.06-2.32-3.41
	c-0.25-0.74-0.38-1.49-0.38-2.28c0.01-6.4,0-12.8,0.01-19.2c0-1.51,0.52-2.85,1.38-4.07c0.79-1.12,1.82-1.98,3.07-2.55
	c0.91-0.41,1.85-0.68,2.86-0.68c6.48,0,12.95-0.01,19.43,0.01c1.49,0,2.82,0.54,4.03,1.38c1.13,0.8,1.99,1.84,2.56,3.11
	c0.39,0.88,0.65,1.8,0.65,2.79c0,6.49,0.01,12.98-0.01,19.47c0,1.49-0.54,2.83-1.39,4.03c-0.89,1.26-2.07,2.21-3.53,2.72
	c-0.73,0.26-1.52,0.45-2.29,0.46C32.22,41.59,28.97,41.56,25.71,41.56z M25.7,39.71c0-0.02,0-0.05,0-0.08
	c3.15,0,6.29,0.01,9.44-0.01c1.48-0.01,2.74-0.64,3.8-1.63c1.33-1.25,1.89-2.87,1.89-4.66c0-6.05-0.04-12.1-0.07-18.15
	c-0.01-1.51-0.63-2.8-1.64-3.87c-1.24-1.32-2.84-1.88-4.62-1.88c-5.86-0.02-11.73-0.01-17.59,0c-0.56,0-1.14,0.11-1.69,0.22
	c-0.94,0.19-1.75,0.65-2.49,1.26c-0.91,0.75-1.51,1.7-1.86,2.81c-0.27,0.86-0.31,1.76-0.31,2.66c0,2.11-0.01,4.21,0,6.32
	c0.02,3.75,0.05,7.51,0.08,11.26c0.01,0.98,0.3,1.87,0.79,2.71c0.75,1.29,1.82,2.2,3.24,2.64c0.73,0.23,1.53,0.36,2.3,0.37
	C19.88,39.73,22.79,39.71,25.7,39.71z"/>
<path class="st0" d="M16.83,26.61c-0.84-0.77-1.42-1.73-1.64-2.89c-0.06-0.3-0.12-0.61-0.13-0.91c-0.01-0.45,0.2-0.8,0.64-0.99
	c-0.47-0.9-0.63-1.84-0.57-2.82c0.05-0.85,0.33-1.63,0.75-2.35c0.21-0.36,0.94-0.42,1.27-0.1c0.28,0.27,0.52,0.59,0.79,0.87
	c1.77,1.76,3.86,2.91,6.32,3.36c0.21,0.04,0.42,0.08,0.66,0.13c0.06-0.9,0.21-1.78,0.67-2.57c1.02-1.74,2.48-2.73,4.54-2.81
	c1.31-0.05,2.42,0.37,3.44,1.14c0.14,0.11,0.43,0.11,0.62,0.04c0.62-0.22,1.21-0.51,1.82-0.73c0.26-0.09,0.56-0.14,0.83-0.09
	c0.44,0.08,0.67,0.67,0.47,1.12c-0.09,0.21-0.2,0.41-0.32,0.63c0.18,0.01,0.36-0.01,0.51,0.05c0.36,0.15,0.61,0.88,0.37,1.19
	c-0.5,0.63-1.05,1.22-1.61,1.8c-0.3,0.31-0.55,0.55-0.56,1.07c0,1.79-0.43,3.5-1.12,5.15c-0.47,1.13-1.07,2.2-1.83,3.15
	c-1.12,1.41-2.45,2.62-4.05,3.49c-1.28,0.69-2.63,1.19-4.07,1.45c-1.41,0.25-2.82,0.25-4.25,0.12c-1.74-0.16-3.34-0.71-4.88-1.49
	c-0.34-0.17-0.67-0.39-0.98-0.62c-0.47-0.34-0.46-1.03,0.01-1.36c0.13-0.09,0.32-0.13,0.48-0.13c1.26,0.03,2.51,0.01,3.7-0.49
	c0.23-0.1,0.47-0.19,0.75-0.31c-0.8-0.43-1.52-0.92-2.01-1.67C17.02,28.32,16.43,27.62,16.83,26.61z M16.82,18.84
	c-0.31,0.81-0.08,1.63,0.38,2.35c0.33,0.51,0.82,0.91,1.24,1.36c0.28,0.29,0.36,0.81,0.17,1.14c-0.18,0.31-0.6,0.45-1.01,0.34
	c-0.23-0.06-0.46-0.12-0.75-0.19c0.53,1.33,1.4,2.18,2.76,2.51c0.45,0.11,0.77,0.48,0.75,0.9c-0.02,0.44-0.38,0.79-0.85,0.84
	c-0.13,0.01-0.25,0.06-0.44,0.11c0.16,0.18,0.25,0.34,0.39,0.45c0.68,0.58,1.44,0.99,2.35,1.03c0.38,0.01,0.63,0.22,0.69,0.52
	c0.08,0.34,0.1,0.71-0.26,1c-1.16,0.93-2.51,1.4-3.96,1.77c0.13,0.06,0.23,0.1,0.32,0.14c1.93,0.65,3.9,0.69,5.86,0.31
	c2.86-0.55,5.23-1.99,7.02-4.31c1.8-2.34,2.76-5,2.73-7.99c0-0.44-0.03-0.87,0.34-1.09c-0.22-0.22-0.51-0.38-0.61-0.62
	c-0.1-0.26-0.02-0.59-0.02-0.81c-0.29-0.15-0.64-0.26-0.88-0.49c-0.91-0.9-2.02-1.2-3.22-1c-1.96,0.32-3.46,2.24-3.05,4.34
	c0.15,0.8-0.25,1.38-0.92,1.31c-0.6-0.07-1.19-0.15-1.78-0.25c-1.33-0.22-2.61-0.64-3.76-1.3C19.12,20.49,18.01,19.64,16.82,18.84z"
	/>
</svg>
